<svg class="max-w-[53px] dark:text-primary-300 text-gray-100" role="img" aria-labelledby="CVEX Logo" viewBox="0 0 57 20" fill="none" xmlns="http://www.w3.org/2000/svg"><g><path d="M3.93452 6.46709V13.6868H1.18604V6.46704H1.87486V5.6291C1.87486 3.49669 2.82841 0.434753 8.60582 0.434753H16.3092L18.4751 6.46709H17.7863L18.5643 8.634H15.6476L14.8695 6.46704H15.5583L14.374 3.16862H9.19478C5.68907 3.16862 4.62333 3.77007 4.62333 5.65644V6.46709H3.93452Z" fill="white"></path><path d="M27.1968 6.46709L24.6045 13.6868H21.6841L24.2784 6.46704H24.9672L27.1348 0.434753H43.3811L47.2241 5.9413L47.4603 6.30253L44.3779 6.30245L42.2032 3.16862H31.8793V6.46709H31.1905V8.6363H37.15V11.3702H31.1905V13.6868H28.3859V6.46704H29.0748V3.15521L27.8856 6.46709H27.1968Z" fill="white"></path><path d="M56.7309 0.434753L52.5228 6.46709H51.834L46.7976 13.6868H43.7126L46.2822 10.0032L46.2817 10.0026L48.6991 6.54168L48.6963 6.53982L48.7471 6.46704H49.436L53.6459 0.434753H56.7309Z" fill="white"></path><path d="M7.17628 19.7193H13.8964L13.0442 16.9854H7.76524C4.25953 16.9854 3.19379 16.4113 3.19379 14.4976V13.687H0.445312V14.5249C0.445312 16.7394 1.53909 19.7193 7.17628 19.7193Z" fill="white"></path><path d="M43.0746 13.687H46.1596L41.9516 19.7193H27.6452V13.687H30.4498V16.9854H40.7737L43.0746 13.687Z" fill="white"></path><path d="M19.5849 13.687L19.7876 14.2516L20.2924 15.6458L20.9963 13.687H23.9167L21.7508 19.7193H18.834L16.6682 13.687H19.5849Z" fill="white"></path><path d="M51.214 13.8385H48.129L52.2163 19.7193H55.3013L51.214 13.8385Z" fill="white"></path><path d="M19.5939 13.6868H16.6771L15.8442 11.367H18.7609L19.5939 13.6868Z" fill="white"></path></g></svg>