<svg xmlns="http://www.w3.org/2000/svg" width="95" height="40" viewBox="0 0 95 40" fill="none">
  <path d="M94.0529 16.8033V29.0843H91.3408V16.8033H94.0529ZM94.0529 11.8405V14.6843H91.3408V11.8405H94.0529Z" fill="white"/>
  <path d="M77.6349 29.0843H75.3857V11.8405H77.8159V17.9676C78.3501 17.2437 78.9965 16.7008 79.7548 16.3389C80.5131 15.9597 81.3576 15.7701 82.2883 15.7701C83.2018 15.7701 84.0635 15.9511 84.8736 16.313C85.6836 16.675 86.3902 17.1662 86.9935 17.7866C87.5967 18.4071 88.0706 19.1396 88.4153 19.9841C88.7773 20.8114 88.9582 21.699 88.9582 22.6469C88.9582 23.5949 88.7859 24.4825 88.4412 25.3098C88.0965 26.1371 87.6225 26.8523 87.0193 27.4555C86.4333 28.0588 85.7267 28.5414 84.8994 28.9033C84.0894 29.248 83.219 29.4203 82.2883 29.4203C81.237 29.4203 80.3322 29.248 79.5738 28.9033C78.8327 28.5586 78.1864 28.0071 77.6349 27.2487V29.0843ZM82.1591 17.9676C81.5386 17.9676 80.9612 18.0883 80.427 18.3295C79.8927 18.5708 79.4187 18.9069 79.0051 19.3378C78.6087 19.7514 78.2984 20.2426 78.0744 20.8114C77.8503 21.3802 77.7383 21.992 77.7383 22.6469C77.7383 23.2846 77.8503 23.8879 78.0744 24.4566C78.3157 25.0082 78.6345 25.4907 79.0309 25.9044C79.4273 26.318 79.8927 26.6455 80.427 26.8868C80.9612 27.1108 81.53 27.2229 82.1332 27.2229C82.7364 27.2229 83.3052 27.1022 83.8395 26.8609C84.3738 26.6196 84.8391 26.2922 85.2355 25.8785C85.6319 25.4477 85.9421 24.9564 86.1662 24.4049C86.4075 23.8362 86.5281 23.2416 86.5281 22.6211C86.5281 21.9834 86.4075 21.3802 86.1662 20.8114C85.9421 20.2426 85.6319 19.7514 85.2355 19.3378C84.8391 18.9069 84.3738 18.5708 83.8395 18.3295C83.3224 18.0883 82.7623 17.9676 82.1591 17.9676Z" fill="white"/>
  <path d="M72.2814 29.0845H70.0581V27.0679C69.8168 27.4471 69.6013 27.7315 69.4118 27.9211C69.2394 28.1107 68.9895 28.3003 68.662 28.4898C67.6797 29.1103 66.5249 29.4205 65.1978 29.4205C64.2671 29.4205 63.3968 29.2482 62.5867 28.9035C61.7767 28.5588 61.0787 28.0848 60.4927 27.4816C59.9067 26.8784 59.4414 26.1717 59.0967 25.3617C58.7692 24.5344 58.6055 23.6382 58.6055 22.673C58.6055 21.6906 58.7778 20.7857 59.1225 19.9585C59.4672 19.1139 59.9412 18.3901 60.5444 17.7868C61.1476 17.1664 61.8543 16.6838 62.6643 16.3391C63.4916 15.9944 64.3878 15.822 65.3529 15.822C66.3353 15.822 67.2574 16.0288 68.1191 16.4425C68.9809 16.8389 69.6272 17.3646 70.0581 18.0195V16.1581H72.2814V29.0845ZM65.4305 27.2231C66.051 27.2231 66.6283 27.1024 67.1626 26.8611C67.6969 26.6198 68.1622 26.2924 68.5586 25.8787C68.9723 25.4651 69.2911 24.9825 69.5152 24.431C69.7565 23.8794 69.8771 23.2934 69.8771 22.673C69.8771 22.0353 69.7565 21.4321 69.5152 20.8633C69.2911 20.2945 68.9809 19.8033 68.5845 19.3897C68.1881 18.9588 67.7141 18.6227 67.1626 18.3814C66.6283 18.1401 66.051 18.0195 65.4305 18.0195C64.81 18.0195 64.2327 18.1401 63.6984 18.3814C63.1641 18.6227 62.6988 18.9502 62.3024 19.3638C61.906 19.7775 61.5871 20.2687 61.3458 20.8374C61.1218 21.4062 61.0097 22.0094 61.0097 22.6471C61.0097 23.2676 61.1218 23.8622 61.3458 24.431C61.5871 24.9825 61.906 25.4651 62.3024 25.8787C62.6988 26.2924 63.1641 26.6198 63.6984 26.8611C64.2499 27.1024 64.8273 27.2231 65.4305 27.2231Z" fill="white"/>
  <path d="M55.0429 29.0843H52.5093V14.1673H48.2471V11.8405H59.2793V14.1673H55.0429V29.0843Z" fill="white"/>
  <path fill-rule="evenodd" clip-rule="evenodd" d="M94.5431 16.3103V29.5761H90.8462V16.3103H94.5431ZM94.5431 11.3475V15.1761H90.8462V11.3475H94.5431ZM94.0507 16.8027H91.3386V29.0837H94.0507V16.8027ZM94.0507 11.8399H91.3386V14.6837H94.0507V11.8399Z" fill="white"/>
  <path fill-rule="evenodd" clip-rule="evenodd" d="M78.1251 29.5761H74.8911V11.3475H78.3061V16.7051C78.6794 16.3799 79.0896 16.1095 79.5364 15.8958C80.3685 15.4806 81.2882 15.2771 82.2861 15.2771C83.2667 15.2771 84.1971 15.4718 85.0722 15.8628C85.9378 16.2496 86.6965 16.7764 87.3443 17.4428C87.9926 18.1096 88.4996 18.8943 88.8667 19.7917C89.2556 20.6828 89.4485 21.636 89.4485 22.6463C89.4485 23.6555 89.2647 24.6078 88.8935 25.4986C88.5258 26.381 88.0176 27.1502 87.3678 27.8006C86.7347 28.4517 85.9748 28.9687 85.0946 29.3538L85.0923 29.3548L85.09 29.3558C84.2156 29.7279 83.2792 29.9122 82.2861 29.9122C81.1823 29.9122 80.2046 29.7313 79.3679 29.351L79.3639 29.3492C78.9164 29.1411 78.5037 28.8669 78.1251 28.5299V29.5761ZM78.1251 27.8438C77.9533 27.6619 77.7892 27.4633 77.6327 27.2481V29.0837H75.3835V11.8399H77.8137V17.967C77.9684 17.7573 78.1326 17.5629 78.3061 17.3836C78.7317 16.9438 79.2139 16.5954 79.7526 16.3383C80.5109 15.9591 81.3554 15.7695 82.2861 15.7695C83.1996 15.7695 84.0613 15.9505 84.8714 16.3124C85.6814 16.6744 86.388 17.1656 86.9913 17.786C87.5945 18.4065 88.0684 19.139 88.4131 19.9835C88.7751 20.8108 88.956 21.6984 88.956 22.6463C88.956 23.5943 88.7837 24.4819 88.439 25.3092C88.0943 26.1364 87.6203 26.8517 87.0171 27.4549C86.4311 28.0582 85.7245 28.5407 84.8972 28.9027C84.0872 29.2474 83.2168 29.4197 82.2861 29.4197C81.2348 29.4197 80.33 29.2474 79.5716 28.9027C79.0408 28.6558 78.5587 28.3028 78.1251 27.8438ZM85.7092 24.2155L85.7107 24.212C85.926 23.7043 86.0335 23.1752 86.0335 22.6205C86.0335 22.0467 85.9253 21.5091 85.7107 21.0031L85.7082 20.9972L85.7058 20.9913C85.5036 20.4781 85.227 20.0423 84.8778 19.6779L84.8743 19.6743L84.8709 19.6706C84.5195 19.2886 84.1085 18.9917 83.6346 18.7777L83.6318 18.7765L83.629 18.7752C83.1809 18.566 82.6923 18.4594 82.1569 18.4594C81.6021 18.4594 81.0943 18.5669 80.6274 18.7777C80.1515 18.9927 79.7291 19.2918 79.3581 19.6782C79.009 20.0425 78.7325 20.4782 78.5303 20.9913C78.3305 21.4986 78.2285 22.0487 78.2285 22.6463C78.2285 23.2218 78.3288 23.7607 78.527 24.2671C78.7458 24.7647 79.0319 25.1954 79.3843 25.5631C79.7346 25.9286 80.1456 26.2189 80.6213 26.4346C81.091 26.6306 81.5928 26.7298 82.131 26.7298C82.6664 26.7298 83.1659 26.6232 83.6346 26.4115C84.1113 26.1963 84.5233 25.9062 84.8743 25.5408C85.2285 25.1549 85.5061 24.7153 85.7078 24.219L85.7092 24.2155ZM85.2333 25.8779C84.8369 26.2916 84.3716 26.619 83.8373 26.8603C83.303 27.1016 82.7342 27.2223 82.131 27.2223C81.5278 27.2223 80.959 27.1102 80.4248 26.8862C79.8905 26.6449 79.4251 26.3174 79.0287 25.9038C78.6323 25.4901 78.3135 25.0075 78.0722 24.456C77.8481 23.8873 77.7361 23.284 77.7361 22.6463C77.7361 21.9914 77.8481 21.3795 78.0722 20.8108C78.2962 20.242 78.6065 19.7508 79.0029 19.3372C79.4165 18.9063 79.8905 18.5702 80.4248 18.3289C80.959 18.0876 81.5364 17.967 82.1569 17.967C82.7601 17.967 83.3202 18.0876 83.8373 18.3289C84.3716 18.5702 84.8369 18.9063 85.2333 19.3372C85.6297 19.7508 85.9399 20.242 86.164 20.8108C86.4053 21.3795 86.5259 21.9828 86.5259 22.6205C86.5259 23.2409 86.4053 23.8356 86.164 24.4043C85.9399 24.9558 85.6297 25.447 85.2333 25.8779Z" fill="white"/>
  <path fill-rule="evenodd" clip-rule="evenodd" d="M72.2792 29.0838V16.1575H70.0559V18.0189C69.9148 17.8045 69.7507 17.6039 69.5634 17.4172C69.1788 17.0336 68.6966 16.7085 68.1169 16.4419C67.2552 16.0282 66.3331 15.8214 65.3507 15.8214C64.3856 15.8214 63.4894 15.9938 62.6621 16.3385C61.852 16.6832 61.1454 17.1658 60.5422 17.7862C59.939 18.3894 59.465 19.1133 59.1203 19.9578C58.7756 20.7851 58.6033 21.69 58.6033 22.6724C58.6033 23.6375 58.767 24.5338 59.0945 25.3611C59.4392 26.1711 59.9045 26.8778 60.4905 27.481C61.0765 28.0842 61.7745 28.5582 62.5845 28.9029C63.3946 29.2476 64.2649 29.4199 65.1956 29.4199C66.5227 29.4199 67.6775 29.1097 68.6598 28.4892C68.9873 28.2996 69.2372 28.1101 69.4096 27.9205C69.4591 27.8709 69.5104 27.8149 69.5634 27.7525C69.7135 27.5758 69.8776 27.3474 70.0559 27.0673V29.0838H72.2792ZM69.5634 28.4568V29.5763H72.7716V15.6651H69.5634V16.7553C69.2045 16.4626 68.7908 16.2102 68.3264 15.9962C67.3973 15.5509 66.4034 15.329 65.3507 15.329C64.3256 15.329 63.3645 15.5123 62.4727 15.8839L62.4693 15.8854C61.6012 16.2548 60.8406 16.7735 60.1916 17.4405C59.5404 18.0923 59.0323 18.871 58.6651 19.7701C58.2935 20.6625 58.1108 21.6319 58.1108 22.6724C58.1108 23.6943 58.2844 24.6526 58.6366 25.5423L58.6389 25.5481L58.6414 25.5539C59.0087 26.4171 59.5071 27.1753 60.1373 27.8241C60.771 28.4765 61.5243 28.9869 62.3917 29.356C63.2662 29.7281 64.2025 29.9124 65.1956 29.9124C66.5987 29.9124 67.8448 29.5842 68.9148 28.9106C69.1611 28.7675 69.3798 28.6169 69.5634 28.4568ZM67.1604 26.8605C66.6261 27.1018 66.0488 27.2225 65.4283 27.2225C64.8251 27.2225 64.2477 27.1018 63.6962 26.8605C63.1619 26.6192 62.6966 26.2918 62.3002 25.8781C61.9038 25.4645 61.5849 24.9819 61.3436 24.4304C61.1196 23.8616 61.0075 23.267 61.0075 22.6465C61.0075 22.0088 61.1196 21.4056 61.3436 20.8368C61.5849 20.2681 61.9038 19.7769 62.3002 19.3632C62.6966 18.9496 63.1619 18.6221 63.6962 18.3808C64.2305 18.1395 64.8078 18.0189 65.4283 18.0189C66.0488 18.0189 66.6261 18.1395 67.1604 18.3808C67.7119 18.6221 68.1859 18.9582 68.5823 19.3891C68.9787 19.8027 69.2889 20.2939 69.513 20.8627C69.7543 21.4314 69.8749 22.0347 69.8749 22.6724C69.8749 23.2928 69.7543 23.8788 69.513 24.4304C69.2889 24.9819 68.9701 25.4645 68.5564 25.8781C68.16 26.2918 67.6947 26.6192 67.1604 26.8605ZM61.7994 21.0233C62.0189 20.5077 62.3051 20.0698 62.6557 19.7039C63.0075 19.3368 63.4206 19.0456 63.8989 18.8296C64.3658 18.6188 64.8736 18.5113 65.4283 18.5113C65.983 18.5113 66.4908 18.6188 66.9577 18.8296L66.9604 18.8308L66.963 18.832C67.4538 19.0467 67.8711 19.3433 68.2199 19.7225L68.2233 19.7262L68.2268 19.7298C68.576 20.0942 68.8526 20.53 69.0548 21.0432L69.0572 21.0491L69.0597 21.055C69.2743 21.561 69.3825 22.0986 69.3825 22.6724C69.3825 23.227 69.2751 23.7456 69.0618 24.233L69.0592 24.239L69.0568 24.245C68.857 24.7367 68.5745 25.1636 68.2082 25.5299L68.2045 25.5336L68.2009 25.5374C67.8491 25.9045 67.436 26.1957 66.9577 26.4117C66.4908 26.6226 65.983 26.73 65.4283 26.73C64.8938 26.73 64.3845 26.6238 63.8962 26.4105C63.4191 26.1946 63.0068 25.9038 62.6557 25.5374C62.3033 25.1697 62.0173 24.739 61.7984 24.2414C61.5996 23.7336 61.5 23.2031 61.5 22.6465C61.5 22.0701 61.6006 21.5304 61.7994 21.0233Z" fill="white"/>
  <path fill-rule="evenodd" clip-rule="evenodd" d="M55.5331 29.5761H52.0147V14.6591H47.7524V11.3475H59.7695V14.6591H55.5331V29.5761ZM52.5071 14.1667V29.0837H55.0407V14.1667H59.2771V11.84H48.2449V14.1667H52.5071Z" fill="white"/>
  <path fill-rule="evenodd" clip-rule="evenodd" d="M17.6254 0V10.947C17.6254 16.4038 24.223 19.1366 28.0815 15.278L32.9298 10.4296L29.571 7.07085L24.7227 11.9193C23.8565 12.7855 22.3754 12.172 22.3754 10.947V0H17.6254ZM39.9992 17.6612H29.1088C23.639 17.6612 20.9122 24.2855 24.7967 28.1362L29.5771 32.8749L32.9212 29.5015L28.1408 24.7628C27.2687 23.8983 27.8809 22.4112 29.1088 22.4112H39.9992V17.6612ZM22.3754 29.053L22.3754 40H17.6254V29.053C17.6254 27.828 16.1443 27.2145 15.2781 28.0807L10.4923 32.8666L7.13347 29.5079L11.9193 24.722C15.7778 20.8634 22.3754 23.5962 22.3754 29.053ZM2.07626e-07 22.3762H10.9468C16.4036 22.3762 19.1364 15.7788 15.2779 11.9202L10.4294 7.07157L7.07061 10.4303L11.9191 15.2789C12.7853 16.1451 12.1718 17.6262 10.9468 17.6262H0L2.07626e-07 22.3762Z" fill="white"/>
  <path fill-rule="evenodd" clip-rule="evenodd" d="M17.6254 0V10.947C17.6254 16.4038 24.223 19.1366 28.0815 15.278L32.9298 10.4296L29.571 7.07085L24.7227 11.9193C23.8565 12.7855 22.3754 12.172 22.3754 10.947V0H17.6254ZM39.9992 17.6612H29.1088C23.639 17.6612 20.9122 24.2855 24.7967 28.1362L29.5771 32.8749L32.9212 29.5015L28.1408 24.7628C27.2687 23.8983 27.8809 22.4112 29.1088 22.4112H39.9992V17.6612ZM22.3754 29.053L22.3754 40H17.6254V29.053C17.6254 27.828 16.1443 27.2145 15.2781 28.0807L10.4923 32.8666L7.13347 29.5079L11.9193 24.722C15.7778 20.8634 22.3754 23.5962 22.3754 29.053ZM2.07626e-07 22.3762H10.9468C16.4036 22.3762 19.1364 15.7788 15.2779 11.9202L10.4294 7.07157L7.07061 10.4303L11.9191 15.2789C12.7853 16.1451 12.1718 17.6262 10.9468 17.6262H0L2.07626e-07 22.3762Z" fill="#FF5C01"/>
  <mask id="mask0_390_482" style="mask-type:alpha" maskUnits="userSpaceOnUse" x="0" y="0" width="40" height="40">
    <path fill-rule="evenodd" clip-rule="evenodd" d="M17.6254 0V10.947C17.6254 16.4038 24.223 19.1366 28.0815 15.278L32.9298 10.4296L29.571 7.07085L24.7227 11.9193C23.8565 12.7855 22.3754 12.172 22.3754 10.947V0H17.6254ZM39.9992 17.6612H29.1088C23.639 17.6612 20.9122 24.2855 24.7967 28.1362L29.5771 32.8749L32.9212 29.5015L28.1408 24.7628C27.2687 23.8983 27.8809 22.4112 29.1088 22.4112H39.9992V17.6612ZM22.3754 29.053L22.3754 40H17.6254V29.053C17.6254 27.828 16.1443 27.2145 15.2781 28.0807L10.4923 32.8666L7.13347 29.5079L11.9193 24.722C15.7778 20.8634 22.3754 23.5962 22.3754 29.053ZM2.07626e-07 22.3762H10.9468C16.4036 22.3762 19.1364 15.7788 15.2779 11.9202L10.4294 7.07157L7.07061 10.4303L11.9191 15.2789C12.7853 16.1451 12.1718 17.6262 10.9468 17.6262H0L2.07626e-07 22.3762Z" fill="white"/>
    <path fill-rule="evenodd" clip-rule="evenodd" d="M17.6254 0V10.947C17.6254 16.4038 24.223 19.1366 28.0815 15.278L32.9298 10.4296L29.571 7.07085L24.7227 11.9193C23.8565 12.7855 22.3754 12.172 22.3754 10.947V0H17.6254ZM39.9992 17.6612H29.1088C23.639 17.6612 20.9122 24.2855 24.7967 28.1362L29.5771 32.8749L32.9212 29.5015L28.1408 24.7628C27.2687 23.8983 27.8809 22.4112 29.1088 22.4112H39.9992V17.6612ZM22.3754 29.053L22.3754 40H17.6254V29.053C17.6254 27.828 16.1443 27.2145 15.2781 28.0807L10.4923 32.8666L7.13347 29.5079L11.9193 24.722C15.7778 20.8634 22.3754 23.5962 22.3754 29.053ZM2.07626e-07 22.3762H10.9468C16.4036 22.3762 19.1364 15.7788 15.2779 11.9202L10.4294 7.07157L7.07061 10.4303L11.9191 15.2789C12.7853 16.1451 12.1718 17.6262 10.9468 17.6262H0L2.07626e-07 22.3762Z" fill="#FF5C01"/>
  </mask>
  <g mask="url(#mask0_390_482)">
    <path d="M-17.5957 7.90125C0.178598 11.9388 39.8423 15.9242 56.3026 -0.435231" stroke="#FF8412" stroke-width="7.60898"/>
    <path d="M-17.5957 27.6836C0.178598 31.7212 39.8423 35.7065 56.3026 19.3471" stroke="#FF8412" stroke-width="9.13078"/>
  </g>
</svg>